<mxfile host="app.diagrams.net" modified="2023-10-23T17:32:27.487Z" agent="Mozilla/5.0 (Windows NT 10.0; Win64; x64) AppleWebKit/537.36 (KHTML, like Gecko) Chrome/118.0.0.0 Safari/537.36" etag="ziyqESg70NaPzw3A309V" version="22.0.6" type="device">
  <diagram name="Page-1" id="EbAEV_jTW3WetPSAjjS8">
    <mxGraphModel dx="880" dy="490" grid="1" gridSize="10" guides="1" tooltips="1" connect="1" arrows="1" fold="1" page="1" pageScale="1" pageWidth="850" pageHeight="1100" background="#FFFFFF" math="0" shadow="0">
      <root>
        <mxCell id="0" />
        <mxCell id="1" parent="0" />
        <mxCell id="UfVapmBmuUFkcLh0fFch-674" style="edgeStyle=orthogonalEdgeStyle;rounded=0;orthogonalLoop=1;jettySize=auto;html=1;exitX=0.5;exitY=1;exitDx=0;exitDy=0;entryX=0.5;entryY=0;entryDx=0;entryDy=0;labelBackgroundColor=none;fontColor=default;strokeColor=#23445D;" edge="1" parent="1" source="UfVapmBmuUFkcLh0fFch-675" target="UfVapmBmuUFkcLh0fFch-678">
          <mxGeometry relative="1" as="geometry" />
        </mxCell>
        <mxCell id="UfVapmBmuUFkcLh0fFch-675" value="Login" style="rounded=1;whiteSpace=wrap;html=1;fontSize=15;glass=0;strokeWidth=1;shadow=0;labelBackgroundColor=none;fillColor=#182E3E;strokeColor=#FFFFFF;fontColor=#FFFFFF;fontStyle=1" vertex="1" parent="1">
          <mxGeometry x="239" y="110" width="134" height="48" as="geometry" />
        </mxCell>
        <mxCell id="UfVapmBmuUFkcLh0fFch-676" style="edgeStyle=orthogonalEdgeStyle;rounded=0;orthogonalLoop=1;jettySize=auto;html=1;exitX=1;exitY=0.5;exitDx=0;exitDy=0;entryX=0;entryY=0.5;entryDx=0;entryDy=0;labelBackgroundColor=none;fontColor=default;strokeColor=#23445D;" edge="1" parent="1" source="UfVapmBmuUFkcLh0fFch-678" target="UfVapmBmuUFkcLh0fFch-681">
          <mxGeometry relative="1" as="geometry" />
        </mxCell>
        <mxCell id="UfVapmBmuUFkcLh0fFch-677" value="" style="edgeStyle=orthogonalEdgeStyle;rounded=0;orthogonalLoop=1;jettySize=auto;html=1;labelBackgroundColor=none;fontColor=default;strokeColor=#23445D;" edge="1" parent="1" source="UfVapmBmuUFkcLh0fFch-678" target="UfVapmBmuUFkcLh0fFch-687">
          <mxGeometry relative="1" as="geometry" />
        </mxCell>
        <mxCell id="UfVapmBmuUFkcLh0fFch-678" value="" style="rhombus;whiteSpace=wrap;html=1;labelBackgroundColor=none;fillColor=#182E3E;strokeColor=#FFFFFF;fontColor=#FFFFFF;" vertex="1" parent="1">
          <mxGeometry x="266" y="198" width="80" height="80" as="geometry" />
        </mxCell>
        <mxCell id="UfVapmBmuUFkcLh0fFch-679" value="" style="edgeStyle=orthogonalEdgeStyle;rounded=0;orthogonalLoop=1;jettySize=auto;html=1;labelBackgroundColor=none;fontColor=default;strokeColor=#23445D;" edge="1" parent="1" source="UfVapmBmuUFkcLh0fFch-681" target="UfVapmBmuUFkcLh0fFch-689">
          <mxGeometry relative="1" as="geometry" />
        </mxCell>
        <mxCell id="UfVapmBmuUFkcLh0fFch-680" value="" style="edgeStyle=orthogonalEdgeStyle;rounded=0;orthogonalLoop=1;jettySize=auto;html=1;labelBackgroundColor=none;fontColor=default;strokeColor=#23445D;" edge="1" parent="1" source="UfVapmBmuUFkcLh0fFch-681" target="UfVapmBmuUFkcLh0fFch-686">
          <mxGeometry relative="1" as="geometry" />
        </mxCell>
        <mxCell id="UfVapmBmuUFkcLh0fFch-681" value="Is &lt;br&gt;password given?&lt;br&gt;" style="rhombus;whiteSpace=wrap;html=1;labelBackgroundColor=none;fillColor=#182E3E;strokeColor=#FFFFFF;fontColor=#FFFFFF;" vertex="1" parent="1">
          <mxGeometry x="403" y="198" width="80" height="80" as="geometry" />
        </mxCell>
        <mxCell id="UfVapmBmuUFkcLh0fFch-682" value="Is username give?&lt;br&gt;" style="text;html=1;strokeColor=none;fillColor=none;align=center;verticalAlign=middle;whiteSpace=wrap;rounded=0;labelBackgroundColor=none;fontColor=#FFFFFF;" vertex="1" parent="1">
          <mxGeometry x="276" y="223" width="60" height="30" as="geometry" />
        </mxCell>
        <mxCell id="UfVapmBmuUFkcLh0fFch-683" value="Yes" style="text;html=1;strokeColor=none;fillColor=none;align=center;verticalAlign=middle;whiteSpace=wrap;rounded=0;labelBackgroundColor=none;fontColor=#000000;" vertex="1" parent="1">
          <mxGeometry x="349" y="218" width="60" height="30" as="geometry" />
        </mxCell>
        <mxCell id="UfVapmBmuUFkcLh0fFch-684" value="" style="edgeStyle=orthogonalEdgeStyle;rounded=0;orthogonalLoop=1;jettySize=auto;html=1;labelBackgroundColor=none;fontColor=default;strokeColor=#23445D;" edge="1" parent="1" source="UfVapmBmuUFkcLh0fFch-686" target="UfVapmBmuUFkcLh0fFch-693">
          <mxGeometry relative="1" as="geometry" />
        </mxCell>
        <mxCell id="UfVapmBmuUFkcLh0fFch-685" value="" style="edgeStyle=orthogonalEdgeStyle;rounded=0;orthogonalLoop=1;jettySize=auto;html=1;labelBackgroundColor=none;fontColor=default;strokeColor=#23445D;" edge="1" parent="1" source="UfVapmBmuUFkcLh0fFch-686" target="UfVapmBmuUFkcLh0fFch-694">
          <mxGeometry relative="1" as="geometry" />
        </mxCell>
        <mxCell id="UfVapmBmuUFkcLh0fFch-686" value="Is &lt;br&gt;username valid?" style="rhombus;whiteSpace=wrap;html=1;labelBackgroundColor=none;fillColor=#182E3E;strokeColor=#FFFFFF;fontColor=#FFFFFF;" vertex="1" parent="1">
          <mxGeometry x="403" y="320" width="80" height="80" as="geometry" />
        </mxCell>
        <mxCell id="UfVapmBmuUFkcLh0fFch-687" value="please enter username" style="rounded=1;whiteSpace=wrap;html=1;labelBackgroundColor=none;fillColor=#182E3E;strokeColor=#FFFFFF;fontColor=#FFFFFF;" vertex="1" parent="1">
          <mxGeometry x="96" y="218" width="110" height="40" as="geometry" />
        </mxCell>
        <mxCell id="UfVapmBmuUFkcLh0fFch-688" value="No" style="text;html=1;strokeColor=none;fillColor=none;align=center;verticalAlign=middle;whiteSpace=wrap;rounded=0;labelBackgroundColor=none;fontColor=default;" vertex="1" parent="1">
          <mxGeometry x="210" y="218" width="60" height="30" as="geometry" />
        </mxCell>
        <mxCell id="UfVapmBmuUFkcLh0fFch-689" value="Please Enter Password" style="rounded=1;whiteSpace=wrap;html=1;labelBackgroundColor=none;fillColor=#182E3E;strokeColor=#FFFFFF;fontColor=#FFFFFF;" vertex="1" parent="1">
          <mxGeometry x="540" y="219" width="120" height="38" as="geometry" />
        </mxCell>
        <mxCell id="UfVapmBmuUFkcLh0fFch-690" value="No" style="text;html=1;strokeColor=none;fillColor=none;align=center;verticalAlign=middle;whiteSpace=wrap;rounded=0;labelBackgroundColor=none;fontColor=#000000;" vertex="1" parent="1">
          <mxGeometry x="470" y="218" width="60" height="30" as="geometry" />
        </mxCell>
        <mxCell id="UfVapmBmuUFkcLh0fFch-691" value="" style="edgeStyle=orthogonalEdgeStyle;rounded=0;orthogonalLoop=1;jettySize=auto;html=1;labelBackgroundColor=none;fontColor=default;strokeColor=#23445D;" edge="1" parent="1" source="UfVapmBmuUFkcLh0fFch-693" target="UfVapmBmuUFkcLh0fFch-695">
          <mxGeometry relative="1" as="geometry" />
        </mxCell>
        <mxCell id="UfVapmBmuUFkcLh0fFch-692" value="" style="edgeStyle=orthogonalEdgeStyle;rounded=0;orthogonalLoop=1;jettySize=auto;html=1;labelBackgroundColor=none;strokeColor=#23445D;fontColor=default;" edge="1" parent="1" source="UfVapmBmuUFkcLh0fFch-693" target="UfVapmBmuUFkcLh0fFch-700">
          <mxGeometry relative="1" as="geometry" />
        </mxCell>
        <mxCell id="UfVapmBmuUFkcLh0fFch-693" value="is &lt;br&gt;password valid?" style="rhombus;whiteSpace=wrap;html=1;labelBackgroundColor=none;fillColor=#182E3E;strokeColor=#FFFFFF;fontColor=#FFFFFF;" vertex="1" parent="1">
          <mxGeometry x="266" y="320" width="80" height="80" as="geometry" />
        </mxCell>
        <mxCell id="UfVapmBmuUFkcLh0fFch-694" value="Invalid username" style="rounded=1;whiteSpace=wrap;html=1;labelBackgroundColor=none;fillColor=#182E3E;strokeColor=#FFFFFF;fontColor=#FFFFFF;" vertex="1" parent="1">
          <mxGeometry x="540" y="340" width="120" height="40" as="geometry" />
        </mxCell>
        <mxCell id="UfVapmBmuUFkcLh0fFch-695" value="Incorrect Password" style="rounded=1;whiteSpace=wrap;html=1;labelBackgroundColor=none;fillColor=#182E3E;strokeColor=#FFFFFF;fontColor=#FFFFFF;" vertex="1" parent="1">
          <mxGeometry x="91" y="340" width="120" height="40" as="geometry" />
        </mxCell>
        <mxCell id="UfVapmBmuUFkcLh0fFch-696" value="Yes" style="text;html=1;strokeColor=none;fillColor=none;align=center;verticalAlign=middle;whiteSpace=wrap;rounded=0;labelBackgroundColor=none;fontColor=#FFFFFF;" vertex="1" parent="1">
          <mxGeometry x="433" y="280" width="60" height="30" as="geometry" />
        </mxCell>
        <mxCell id="UfVapmBmuUFkcLh0fFch-697" value="Yes" style="text;html=1;strokeColor=none;fillColor=none;align=center;verticalAlign=middle;whiteSpace=wrap;rounded=0;labelBackgroundColor=none;fontColor=default;" vertex="1" parent="1">
          <mxGeometry x="349" y="340" width="60" height="30" as="geometry" />
        </mxCell>
        <mxCell id="UfVapmBmuUFkcLh0fFch-698" value="No" style="text;html=1;strokeColor=none;fillColor=none;align=center;verticalAlign=middle;whiteSpace=wrap;rounded=0;labelBackgroundColor=none;fontColor=default;" vertex="1" parent="1">
          <mxGeometry x="216" y="340" width="60" height="30" as="geometry" />
        </mxCell>
        <mxCell id="UfVapmBmuUFkcLh0fFch-699" value="No" style="text;html=1;strokeColor=none;fillColor=none;align=center;verticalAlign=middle;whiteSpace=wrap;rounded=0;labelBackgroundColor=none;fontColor=default;" vertex="1" parent="1">
          <mxGeometry x="480" y="340" width="60" height="30" as="geometry" />
        </mxCell>
        <mxCell id="UfVapmBmuUFkcLh0fFch-700" value="Login Successfully" style="rounded=1;whiteSpace=wrap;html=1;labelBackgroundColor=none;fillColor=#182E3E;strokeColor=#FFFFFF;fontColor=#FFFFFF;fontSize=15;fontStyle=1" vertex="1" parent="1">
          <mxGeometry x="239" y="480" width="134" height="60" as="geometry" />
        </mxCell>
        <mxCell id="UfVapmBmuUFkcLh0fFch-701" value="Yes" style="text;html=1;strokeColor=none;fillColor=none;align=center;verticalAlign=middle;whiteSpace=wrap;rounded=0;fontColor=default;" vertex="1" parent="1">
          <mxGeometry x="289" y="420" width="60" height="30" as="geometry" />
        </mxCell>
      </root>
    </mxGraphModel>
  </diagram>
</mxfile>
